<svg width="392" height="392" viewBox="0 0 392 392" fill="none" xmlns="http://www.w3.org/2000/svg">
<rect width="392" height="392" rx="50" fill="black"/>
<path d="M85.8618 86.7969C89.4588 86.7969 91.9979 87.6432 93.479 89.3359C95.0659 90.9229 95.8594 93.6735 95.8594 97.5879V171.062C109.507 153.606 126.275 144.878 146.165 144.878C159.283 144.878 171.026 147.999 181.394 154.241C191.762 160.377 199.908 169.264 205.833 180.901C211.757 192.432 214.719 206.027 214.719 221.685C214.719 237.342 211.757 250.99 205.833 262.627C199.908 274.159 191.762 283.045 181.394 289.287C171.026 295.423 159.283 298.491 146.165 298.491C135.797 298.491 126.222 296.164 117.441 291.509C108.66 286.854 100.938 280.189 94.2725 271.514V284.209C94.2725 288.123 93.479 290.927 91.8921 292.62C90.411 294.207 87.8719 295 84.2749 295H59.043C55.446 295 52.854 294.207 51.2671 292.62C49.786 290.927 49.0454 288.123 49.0454 284.209C49.0454 280.295 49.786 277.544 51.2671 275.957C52.854 274.264 55.446 273.418 59.043 273.418H72.0557V108.379H55.8691C52.2721 108.379 49.6802 107.585 48.0933 105.999C46.6121 104.306 45.8716 101.502 45.8716 97.5879C45.8716 93.6735 46.6121 90.9229 48.0933 89.3359C49.6802 87.6432 52.2721 86.7969 55.8691 86.7969H85.8618ZM144.578 168.364C135.162 168.364 126.751 170.48 119.346 174.712C112.046 178.944 106.28 185.08 102.048 193.12C97.9224 201.16 95.8594 210.682 95.8594 221.685C95.8594 232.687 97.9224 242.209 102.048 250.249C106.28 258.289 112.046 264.425 119.346 268.657C126.751 272.889 135.162 275.005 144.578 275.005C153.993 275.005 162.087 272.783 168.857 268.34C175.628 263.791 180.759 257.496 184.25 249.456C187.847 241.415 189.646 232.158 189.646 221.685C189.646 211.211 187.847 201.954 184.25 193.914C180.759 185.873 175.628 179.631 168.857 175.188C162.087 170.639 153.993 168.364 144.578 168.364Z" fill="white"/>
<rect x="235" y="275" width="113" height="20" fill="white"/>
</svg>
